<?xml version="1.0" encoding="UTF-8"?>
<svg xmlns="http://www.w3.org/2000/svg" xmlns:xlink="http://www.w3.org/1999/xlink" viewBox="0 0 30 30" width="30px" height="30px">
<g id="surface106151452">
<path style=" stroke:none;fill-rule:nonzero;fill:rgb(100%,100%,100%);fill-opacity:1;" d="M 3.300781 15 C 3.300781 8.539062 8.539062 3.300781 15 3.300781 C 21.460938 3.300781 26.699219 8.539062 26.699219 15 C 26.699219 21.460938 21.460938 26.699219 15 26.699219 C 8.539062 26.699219 3.300781 21.460938 3.300781 15 Z M 15 23.699219 C 19.804688 23.699219 23.699219 19.804688 23.699219 15 C 23.699219 10.195312 19.804688 6.300781 15 6.300781 C 10.195312 6.300781 6.300781 10.195312 6.300781 15 C 6.300781 19.804688 10.195312 23.699219 15 23.699219 Z M 15 23.699219 "/>
<path style=" stroke:none;fill-rule:nonzero;fill:rgb(100%,100%,100%);fill-opacity:1;" d="M 22.199219 6.199219 L 7.800781 6.199219 C 6.914062 6.199219 6.199219 6.914062 6.199219 7.800781 L 6.199219 22.199219 C 6.199219 23.085938 6.914062 23.800781 7.800781 23.800781 L 22.199219 23.800781 C 23.085938 23.800781 23.800781 23.085938 23.800781 22.199219 L 23.800781 7.800781 C 23.800781 6.914062 23.082031 6.199219 22.199219 6.199219 Z M 21.152344 13.777344 C 21.046875 13.789062 20.941406 13.796875 20.835938 13.796875 C 19.640625 13.796875 18.589844 13.179688 17.976562 12.25 C 17.976562 14.691406 17.976562 17.464844 17.976562 17.511719 C 17.976562 19.660156 16.234375 21.402344 14.089844 21.402344 C 11.941406 21.398438 10.199219 19.660156 10.199219 17.511719 C 10.199219 15.363281 11.941406 13.621094 14.089844 13.621094 C 14.171875 13.621094 14.25 13.628906 14.328125 13.632812 L 14.328125 15.550781 C 14.25 15.542969 14.171875 15.527344 14.089844 15.527344 C 12.992188 15.527344 12.105469 16.414062 12.105469 17.511719 C 12.105469 18.609375 12.992188 19.496094 14.089844 19.496094 C 15.1875 19.496094 16.152344 18.632812 16.152344 17.535156 C 16.152344 17.492188 16.171875 8.601562 16.171875 8.601562 L 18.003906 8.601562 C 18.175781 10.238281 19.5 11.53125 21.152344 11.648438 Z M 21.152344 13.777344 "/>
</g>
</svg>
